<svg width="20" height="43" viewBox="0 0 20 43" fill="none" xmlns="http://www.w3.org/2000/svg">
<path d="M16.0869 11H3.58691C3.31077 11 3.08691 10.7761 3.08691 10.5V3.62132C3.08691 3.2235 3.24495 2.84196 3.52625 2.56066L4.64757 1.43934C4.92888 1.15804 5.31041 1 5.70824 1H13.9656C14.3634 1 14.7449 1.15804 15.0263 1.43934L16.1476 2.56066C16.4289 2.84196 16.5869 3.2235 16.5869 3.62132V10.5C16.5869 10.7761 16.3631 11 16.0869 11Z" fill="black" stroke="black"/>
<rect x="0.5" y="-0.5" width="7" height="1" transform="matrix(1 0 0 -1 5.83984 6)" stroke="#E5E5E5"/>
<rect width="13" height="29" rx="0.5" transform="matrix(1 0 0 -1 3.08691 42.425)" fill="black" stroke="black"/>
<path d="M18.1143 7.00122H17.0069C16.7307 7.00122 16.5069 6.77736 16.5069 6.50122V5.51467C16.5069 5.23853 16.7307 5.01467 17.0069 5.01467H18.1143C18.3904 5.01467 18.6143 5.23853 18.6143 5.51467V6.50122C18.6143 6.77736 18.3904 7.00122 18.1143 7.00122Z" fill="black"/>
<path d="M1.12305 7.00122H2.58861C2.86475 7.00122 3.08861 6.77736 3.08861 6.50122V5.51467C3.08861 5.23853 2.86475 5.01467 2.58861 5.01467H1.12305C0.846905 5.01467 0.623047 5.23853 0.623047 5.51467V6.50122C0.623047 6.77736 0.846904 7.00122 1.12305 7.00122Z" fill="black"/>
<path d="M18.1143 7.00122H17.0069C16.7307 7.00122 16.5069 6.77736 16.5069 6.50122V5.51467C16.5069 5.23853 16.7307 5.01467 17.0069 5.01467H18.1143C18.3904 5.01467 18.6143 5.23853 18.6143 5.51467V6.50122C18.6143 6.77736 18.3904 7.00122 18.1143 7.00122Z" stroke="black"/>
<path d="M1.12305 7.00122H2.58861C2.86475 7.00122 3.08861 6.77736 3.08861 6.50122V5.51467C3.08861 5.23853 2.86475 5.01467 2.58861 5.01467H1.12305C0.846905 5.01467 0.623047 5.23853 0.623047 5.51467V6.50122C0.623047 6.77736 0.846904 7.00122 1.12305 7.00122Z" stroke="black"/>
</svg>
