<svg width="18" height="43" viewBox="0 0 18 43" fill="none" xmlns="http://www.w3.org/2000/svg">
<path d="M15.5 9.5H3M15.5 9.5V41C15.5 41.2761 15.2761 41.5 15 41.5H3.5C3.22386 41.5 3 41.2761 3 41V9.5M15.5 9.5V6.5M3 9.5V6.5M15.5 6.5V5.60611C15.5 5.53615 15.4853 5.46697 15.4569 5.40304L13.632 1.29693C13.5517 1.11637 13.3727 1 13.1751 1H5.32494C5.12734 1 4.94828 1.11637 4.86803 1.29693L3.44444 4.5M15.5 6.5H16.5C16.7761 6.5 17 6.27614 17 6V5C17 4.72386 16.7761 4.5 16.5 4.5H15M3 6.5V5.60611C3 5.53615 3.01468 5.46697 3.04309 5.40304L3.44444 4.5M3 6.5H1.5C1.22386 6.5 1 6.27614 1 6V5C1 4.72386 1.22386 4.5 1.5 4.5H3.44444" stroke="black" stroke-width="2"/>
<rect width="6" height="2" rx="0.5" transform="matrix(1 0 0 -1 6 6.5)" fill="black"/>
<path d="M9.5 13.5V23.5" stroke="black" stroke-width="2" stroke-linecap="round"/>
<path d="M9.5 27.5V37.5" stroke="black" stroke-width="2" stroke-linecap="round"/>
</svg>
